<svg style="vertical-align: -2.397ex; font-size: 18px;" xmlns="http://www.w3.org/2000/svg" width="179.934ex" height="5.925ex" role="img" focusable="false" viewBox="0 -1559.5 79530.9 2619" xmlns:xlink="http://www.w3.org/1999/xlink" aria-hidden="true" fill="white" stroke="white"><defs><path id="MJX-5-TEX-I-1D703" d="M35 200Q35 302 74 415T180 610T319 704Q320 704 327 704T339 705Q393 701 423 656Q462 596 462 495Q462 380 417 261T302 66T168 -10H161Q125 -10 99 10T60 63T41 130T35 200ZM383 566Q383 668 330 668Q294 668 260 623T204 521T170 421T157 371Q206 370 254 370L351 371Q352 372 359 404T375 484T383 566ZM113 132Q113 26 166 26Q181 26 198 36T239 74T287 161T335 307L340 324H145Q145 321 136 286T120 208T113 132Z" fill="white"/><path id="MJX-5-TEX-V-2032" d="M79 43Q73 43 52 49T30 61Q30 68 85 293T146 528Q161 560 198 560Q218 560 240 545T262 501Q262 496 260 486Q259 479 173 263T84 45T79 43Z" fill="white"/><path id="MJX-5-TEX-N-31" d="M213 578L200 573Q186 568 160 563T102 556H83V602H102Q149 604 189 617T245 641T273 663Q275 666 285 666Q294 666 302 660V361L303 61Q310 54 315 52T339 48T401 46H427V0H416Q395 3 257 3Q121 3 100 0H88V46H114Q136 46 152 46T177 47T193 50T201 52T207 57T213 61V578Z" fill="white"/><path id="MJX-5-TEX-N-3D" d="M56 347Q56 360 70 367H707Q722 359 722 347Q722 336 708 328L390 327H72Q56 332 56 347ZM56 153Q56 168 72 173H708Q722 163 722 153Q722 140 707 133H70Q56 140 56 153Z" fill="white"/><path id="MJX-5-TEX-N-2212" d="M84 237T84 250T98 270H679Q694 262 694 250T679 230H98Q84 237 84 250Z" fill="white"/><path id="MJX-5-TEX-I-1D454" d="M311 43Q296 30 267 15T206 0Q143 0 105 45T66 160Q66 265 143 353T314 442Q361 442 401 394L404 398Q406 401 409 404T418 412T431 419T447 422Q461 422 470 413T480 394Q480 379 423 152T363 -80Q345 -134 286 -169T151 -205Q10 -205 10 -137Q10 -111 28 -91T74 -71Q89 -71 102 -80T116 -111Q116 -121 114 -130T107 -144T99 -154T92 -162L90 -164H91Q101 -167 151 -167Q189 -167 211 -155Q234 -144 254 -122T282 -75Q288 -56 298 -13Q311 35 311 43ZM384 328L380 339Q377 350 375 354T369 368T359 382T346 393T328 402T306 405Q262 405 221 352Q191 313 171 233T151 117Q151 38 213 38Q269 38 323 108L331 118L384 328Z" fill="white"/><path id="MJX-5-TEX-N-28" d="M94 250Q94 319 104 381T127 488T164 576T202 643T244 695T277 729T302 750H315H319Q333 750 333 741Q333 738 316 720T275 667T226 581T184 443T167 250T184 58T225 -81T274 -167T316 -220T333 -241Q333 -250 318 -250H315H302L274 -226Q180 -141 137 -14T94 250Z" fill="white"/><path id="MJX-5-TEX-N-32" d="M109 429Q82 429 66 447T50 491Q50 562 103 614T235 666Q326 666 387 610T449 465Q449 422 429 383T381 315T301 241Q265 210 201 149L142 93L218 92Q375 92 385 97Q392 99 409 186V189H449V186Q448 183 436 95T421 3V0H50V19V31Q50 38 56 46T86 81Q115 113 136 137Q145 147 170 174T204 211T233 244T261 278T284 308T305 340T320 369T333 401T340 431T343 464Q343 527 309 573T212 619Q179 619 154 602T119 569T109 550Q109 549 114 549Q132 549 151 535T170 489Q170 464 154 447T109 429Z" fill="white"/><path id="MJX-5-TEX-I-1D45A" d="M21 287Q22 293 24 303T36 341T56 388T88 425T132 442T175 435T205 417T221 395T229 376L231 369Q231 367 232 367L243 378Q303 442 384 442Q401 442 415 440T441 433T460 423T475 411T485 398T493 385T497 373T500 364T502 357L510 367Q573 442 659 442Q713 442 746 415T780 336Q780 285 742 178T704 50Q705 36 709 31T724 26Q752 26 776 56T815 138Q818 149 821 151T837 153Q857 153 857 145Q857 144 853 130Q845 101 831 73T785 17T716 -10Q669 -10 648 17T627 73Q627 92 663 193T700 345Q700 404 656 404H651Q565 404 506 303L499 291L466 157Q433 26 428 16Q415 -11 385 -11Q372 -11 364 -4T353 8T350 18Q350 29 384 161L420 307Q423 322 423 345Q423 404 379 404H374Q288 404 229 303L222 291L189 157Q156 26 151 16Q138 -11 108 -11Q95 -11 87 -5T76 7T74 17Q74 30 112 181Q151 335 151 342Q154 357 154 369Q154 405 129 405Q107 405 92 377T69 316T57 280Q55 278 41 278H27Q21 284 21 287Z" fill="white"/><path id="MJX-5-TEX-N-2B" d="M56 237T56 250T70 270H369V420L370 570Q380 583 389 583Q402 583 409 568V270H707Q722 262 722 250T707 230H409V-68Q401 -82 391 -82H389H387Q375 -82 369 -68V230H70Q56 237 56 250Z" fill="white"/><path id="MJX-5-TEX-N-29" d="M60 749L64 750Q69 750 74 750H86L114 726Q208 641 251 514T294 250Q294 182 284 119T261 12T224 -76T186 -143T145 -194T113 -227T90 -246Q87 -249 86 -250H74Q66 -250 63 -250T58 -247T55 -238Q56 -237 66 -225Q221 -64 221 250T66 725Q56 737 55 738Q55 746 60 749Z" fill="white"/><path id="MJX-5-TEX-N-73" d="M295 316Q295 356 268 385T190 414Q154 414 128 401Q98 382 98 349Q97 344 98 336T114 312T157 287Q175 282 201 278T245 269T277 256Q294 248 310 236T342 195T359 133Q359 71 321 31T198 -10H190Q138 -10 94 26L86 19L77 10Q71 4 65 -1L54 -11H46H42Q39 -11 33 -5V74V132Q33 153 35 157T45 162H54Q66 162 70 158T75 146T82 119T101 77Q136 26 198 26Q295 26 295 104Q295 133 277 151Q257 175 194 187T111 210Q75 227 54 256T33 318Q33 357 50 384T93 424T143 442T187 447H198Q238 447 268 432L283 424L292 431Q302 440 314 448H322H326Q329 448 335 442V310L329 304H301Q295 310 295 316Z" fill="white"/><path id="MJX-5-TEX-N-69" d="M69 609Q69 637 87 653T131 669Q154 667 171 652T188 609Q188 579 171 564T129 549Q104 549 87 564T69 609ZM247 0Q232 3 143 3Q132 3 106 3T56 1L34 0H26V46H42Q70 46 91 49Q100 53 102 60T104 102V205V293Q104 345 102 359T88 378Q74 385 41 385H30V408Q30 431 32 431L42 432Q52 433 70 434T106 436Q123 437 142 438T171 441T182 442H185V62Q190 52 197 50T232 46H255V0H247Z" fill="white"/><path id="MJX-5-TEX-N-6E" d="M41 46H55Q94 46 102 60V68Q102 77 102 91T102 122T103 161T103 203Q103 234 103 269T102 328V351Q99 370 88 376T43 385H25V408Q25 431 27 431L37 432Q47 433 65 434T102 436Q119 437 138 438T167 441T178 442H181V402Q181 364 182 364T187 369T199 384T218 402T247 421T285 437Q305 442 336 442Q450 438 463 329Q464 322 464 190V104Q464 66 466 59T477 49Q498 46 526 46H542V0H534L510 1Q487 2 460 2T422 3Q319 3 310 0H302V46H318Q379 46 379 62Q380 64 380 200Q379 335 378 343Q372 371 358 385T334 402T308 404Q263 404 229 370Q202 343 195 315T187 232V168V108Q187 78 188 68T191 55T200 49Q221 46 249 46H265V0H257L234 1Q210 2 183 2T145 3Q42 3 33 0H25V46H41Z" fill="white"/><path id="MJX-5-TEX-N-2061" d="" fill="white"/><path id="MJX-5-TEX-SO-28" d="M152 251Q152 646 388 850H416Q422 844 422 841Q422 837 403 816T357 753T302 649T255 482T236 250Q236 124 255 19T301 -147T356 -251T403 -315T422 -340Q422 -343 416 -349H388Q359 -325 332 -296T271 -213T212 -97T170 56T152 251Z" fill="white"/><path id="MJX-5-TEX-I-1D459" d="M117 59Q117 26 142 26Q179 26 205 131Q211 151 215 152Q217 153 225 153H229Q238 153 241 153T246 151T248 144Q247 138 245 128T234 90T214 43T183 6T137 -11Q101 -11 70 11T38 85Q38 97 39 102L104 360Q167 615 167 623Q167 626 166 628T162 632T157 634T149 635T141 636T132 637T122 637Q112 637 109 637T101 638T95 641T94 647Q94 649 96 661Q101 680 107 682T179 688Q194 689 213 690T243 693T254 694Q266 694 266 686Q266 675 193 386T118 83Q118 81 118 75T117 65V59Z" fill="white"/><path id="MJX-5-TEX-N-63" d="M370 305T349 305T313 320T297 358Q297 381 312 396Q317 401 317 402T307 404Q281 408 258 408Q209 408 178 376Q131 329 131 219Q131 137 162 90Q203 29 272 29Q313 29 338 55T374 117Q376 125 379 127T395 129H409Q415 123 415 120Q415 116 411 104T395 71T366 33T318 2T249 -11Q163 -11 99 53T34 214Q34 318 99 383T250 448T370 421T404 357Q404 334 387 320Z" fill="white"/><path id="MJX-5-TEX-N-6F" d="M28 214Q28 309 93 378T250 448Q340 448 405 380T471 215Q471 120 407 55T250 -10Q153 -10 91 57T28 214ZM250 30Q372 30 372 193V225V250Q372 272 371 288T364 326T348 362T317 390T268 410Q263 411 252 411Q222 411 195 399Q152 377 139 338T126 246V226Q126 130 145 91Q177 30 250 30Z" fill="white"/><path id="MJX-5-TEX-SO-29" d="M305 251Q305 -145 69 -349H56Q43 -349 39 -347T35 -338Q37 -333 60 -307T108 -239T160 -136T204 27T221 250T204 473T160 636T108 740T60 807T35 839Q35 850 50 850H56H69Q197 743 256 566Q305 425 305 251Z" fill="white"/><path id="MJX-5-TEX-N-A0" d="" fill="white"/><path id="MJX-5-TEX-N-5C" d="M56 731Q56 740 62 745T75 750Q85 750 92 740Q96 733 270 255T444 -231Q444 -239 438 -244T424 -250Q414 -250 407 -240Q404 -236 230 242T56 731Z" fill="white"/><path id="MJX-5-TEX-N-5B" d="M118 -250V750H255V710H158V-210H255V-250H118Z" fill="white"/><path id="MJX-5-TEX-I-1D452" d="M39 168Q39 225 58 272T107 350T174 402T244 433T307 442H310Q355 442 388 420T421 355Q421 265 310 237Q261 224 176 223Q139 223 138 221Q138 219 132 186T125 128Q125 81 146 54T209 26T302 45T394 111Q403 121 406 121Q410 121 419 112T429 98T420 82T390 55T344 24T281 -1T205 -11Q126 -11 83 42T39 168ZM373 353Q367 405 305 405Q272 405 244 391T199 357T170 316T154 280T149 261Q149 260 169 260Q282 260 327 284T373 353Z" fill="white"/><path id="MJX-5-TEX-N-5D" d="M22 710V750H159V-250H22V-210H119V710H22Z" fill="white"/></defs><g stroke="white" fill="white" stroke-width="0" transform="scale(1,-1)"><g data-mml-node="math"><g data-mml-node="mtable"><g data-mml-node="mtr" transform="translate(0,-99.5)"><g data-mml-node="mtd"><g data-mml-node="msubsup"><g data-mml-node="mi"><use data-c="1D703" xlink:href="#MJX-5-TEX-I-1D703" xmlns:xlink="http://www.w3.org/1999/xlink"/></g><g data-mml-node="mo" transform="translate(502,413) scale(0.707)"><g data-c="2033"><use data-c="2032" xlink:href="#MJX-5-TEX-V-2032" xmlns:xlink="http://www.w3.org/1999/xlink"/><use data-c="2032" xlink:href="#MJX-5-TEX-V-2032" xmlns:xlink="http://www.w3.org/1999/xlink" transform="translate(275,0)"/></g></g><g data-mml-node="mn" transform="translate(502,-247) scale(0.707)"><use data-c="31" xlink:href="#MJX-5-TEX-N-31" xmlns:xlink="http://www.w3.org/1999/xlink"/></g></g></g><g data-mml-node="mtd" transform="translate(940.9,0)"><g data-mml-node="mi"/><g data-mml-node="mo" transform="translate(277.8,0)"><use data-c="3D" xlink:href="#MJX-5-TEX-N-3D" xmlns:xlink="http://www.w3.org/1999/xlink"/></g><g data-mml-node="mfrac" transform="translate(1333.6,0)"><g data-mml-node="mrow" transform="translate(220,809.5)"><g data-mml-node="mo"><use data-c="2212" xlink:href="#MJX-5-TEX-N-2212" xmlns:xlink="http://www.w3.org/1999/xlink"/></g><g data-mml-node="mi" transform="translate(778,0)"><use data-c="1D454" xlink:href="#MJX-5-TEX-I-1D454" xmlns:xlink="http://www.w3.org/1999/xlink"/></g><g data-mml-node="mo" transform="translate(1255,0)"><use data-c="28" xlink:href="#MJX-5-TEX-N-28" xmlns:xlink="http://www.w3.org/1999/xlink"/></g><g data-mml-node="mn" transform="translate(1644,0)"><use data-c="32" xlink:href="#MJX-5-TEX-N-32" xmlns:xlink="http://www.w3.org/1999/xlink"/></g><g data-mml-node="msub" transform="translate(2144,0)"><g data-mml-node="mi"><use data-c="1D45A" xlink:href="#MJX-5-TEX-I-1D45A" xmlns:xlink="http://www.w3.org/1999/xlink"/></g><g data-mml-node="mn" transform="translate(911,-150) scale(0.707)"><use data-c="31" xlink:href="#MJX-5-TEX-N-31" xmlns:xlink="http://www.w3.org/1999/xlink"/></g></g><g data-mml-node="mo" transform="translate(3680.8,0)"><use data-c="2B" xlink:href="#MJX-5-TEX-N-2B" xmlns:xlink="http://www.w3.org/1999/xlink"/></g><g data-mml-node="msub" transform="translate(4681,0)"><g data-mml-node="mi"><use data-c="1D45A" xlink:href="#MJX-5-TEX-I-1D45A" xmlns:xlink="http://www.w3.org/1999/xlink"/></g><g data-mml-node="mn" transform="translate(911,-150) scale(0.707)"><use data-c="32" xlink:href="#MJX-5-TEX-N-32" xmlns:xlink="http://www.w3.org/1999/xlink"/></g></g><g data-mml-node="mo" transform="translate(5995.6,0)"><use data-c="29" xlink:href="#MJX-5-TEX-N-29" xmlns:xlink="http://www.w3.org/1999/xlink"/></g><g data-mml-node="mi" transform="translate(6551.2,0)"><use data-c="73" xlink:href="#MJX-5-TEX-N-73" xmlns:xlink="http://www.w3.org/1999/xlink"/><use data-c="69" xlink:href="#MJX-5-TEX-N-69" xmlns:xlink="http://www.w3.org/1999/xlink" transform="translate(394,0)"/><use data-c="6E" xlink:href="#MJX-5-TEX-N-6E" xmlns:xlink="http://www.w3.org/1999/xlink" transform="translate(672,0)"/></g><g data-mml-node="mo" transform="translate(7779.2,0)"><use data-c="2061" xlink:href="#MJX-5-TEX-N-2061" xmlns:xlink="http://www.w3.org/1999/xlink"/></g><g data-mml-node="msub" transform="translate(7945.9,0)"><g data-mml-node="mi"><use data-c="1D703" xlink:href="#MJX-5-TEX-I-1D703" xmlns:xlink="http://www.w3.org/1999/xlink"/></g><g data-mml-node="mn" transform="translate(502,-150) scale(0.707)"><use data-c="31" xlink:href="#MJX-5-TEX-N-31" xmlns:xlink="http://www.w3.org/1999/xlink"/></g></g><g data-mml-node="mo" transform="translate(9073.7,0)"><use data-c="2212" xlink:href="#MJX-5-TEX-N-2212" xmlns:xlink="http://www.w3.org/1999/xlink"/></g><g data-mml-node="msub" transform="translate(10073.9,0)"><g data-mml-node="mi"><use data-c="1D45A" xlink:href="#MJX-5-TEX-I-1D45A" xmlns:xlink="http://www.w3.org/1999/xlink"/></g><g data-mml-node="mn" transform="translate(911,-150) scale(0.707)"><use data-c="32" xlink:href="#MJX-5-TEX-N-32" xmlns:xlink="http://www.w3.org/1999/xlink"/></g></g><g data-mml-node="mi" transform="translate(11388.4,0)"><use data-c="1D454" xlink:href="#MJX-5-TEX-I-1D454" xmlns:xlink="http://www.w3.org/1999/xlink"/></g><g data-mml-node="mi" transform="translate(12032.1,0)"><use data-c="73" xlink:href="#MJX-5-TEX-N-73" xmlns:xlink="http://www.w3.org/1999/xlink"/><use data-c="69" xlink:href="#MJX-5-TEX-N-69" xmlns:xlink="http://www.w3.org/1999/xlink" transform="translate(394,0)"/><use data-c="6E" xlink:href="#MJX-5-TEX-N-6E" xmlns:xlink="http://www.w3.org/1999/xlink" transform="translate(672,0)"/></g><g data-mml-node="mo" transform="translate(13260.1,0)"><use data-c="2061" xlink:href="#MJX-5-TEX-N-2061" xmlns:xlink="http://www.w3.org/1999/xlink"/></g><g data-mml-node="mo" transform="translate(13260.1,0)"><use data-c="28" xlink:href="#MJX-5-TEX-N-28" xmlns:xlink="http://www.w3.org/1999/xlink"/></g><g data-mml-node="msub" transform="translate(13649.1,0)"><g data-mml-node="mi"><use data-c="1D703" xlink:href="#MJX-5-TEX-I-1D703" xmlns:xlink="http://www.w3.org/1999/xlink"/></g><g data-mml-node="mn" transform="translate(502,-150) scale(0.707)"><use data-c="31" xlink:href="#MJX-5-TEX-N-31" xmlns:xlink="http://www.w3.org/1999/xlink"/></g></g><g data-mml-node="mo" transform="translate(14776.9,0)"><use data-c="2212" xlink:href="#MJX-5-TEX-N-2212" xmlns:xlink="http://www.w3.org/1999/xlink"/></g><g data-mml-node="mn" transform="translate(15777.1,0)"><use data-c="32" xlink:href="#MJX-5-TEX-N-32" xmlns:xlink="http://www.w3.org/1999/xlink"/></g><g data-mml-node="msub" transform="translate(16277.1,0)"><g data-mml-node="mi"><use data-c="1D703" xlink:href="#MJX-5-TEX-I-1D703" xmlns:xlink="http://www.w3.org/1999/xlink"/></g><g data-mml-node="mn" transform="translate(502,-150) scale(0.707)"><use data-c="32" xlink:href="#MJX-5-TEX-N-32" xmlns:xlink="http://www.w3.org/1999/xlink"/></g></g><g data-mml-node="mo" transform="translate(17182.7,0)"><use data-c="29" xlink:href="#MJX-5-TEX-N-29" xmlns:xlink="http://www.w3.org/1999/xlink"/></g><g data-mml-node="mo" transform="translate(17793.9,0)"><use data-c="2212" xlink:href="#MJX-5-TEX-N-2212" xmlns:xlink="http://www.w3.org/1999/xlink"/></g><g data-mml-node="mn" transform="translate(18794.1,0)"><use data-c="32" xlink:href="#MJX-5-TEX-N-32" xmlns:xlink="http://www.w3.org/1999/xlink"/></g><g data-mml-node="mi" transform="translate(19460.8,0)"><use data-c="73" xlink:href="#MJX-5-TEX-N-73" xmlns:xlink="http://www.w3.org/1999/xlink"/><use data-c="69" xlink:href="#MJX-5-TEX-N-69" xmlns:xlink="http://www.w3.org/1999/xlink" transform="translate(394,0)"/><use data-c="6E" xlink:href="#MJX-5-TEX-N-6E" xmlns:xlink="http://www.w3.org/1999/xlink" transform="translate(672,0)"/></g><g data-mml-node="mo" transform="translate(20688.8,0)"><use data-c="2061" xlink:href="#MJX-5-TEX-N-2061" xmlns:xlink="http://www.w3.org/1999/xlink"/></g><g data-mml-node="mo" transform="translate(20688.8,0)"><use data-c="28" xlink:href="#MJX-5-TEX-N-28" xmlns:xlink="http://www.w3.org/1999/xlink"/></g><g data-mml-node="msub" transform="translate(21077.8,0)"><g data-mml-node="mi"><use data-c="1D703" xlink:href="#MJX-5-TEX-I-1D703" xmlns:xlink="http://www.w3.org/1999/xlink"/></g><g data-mml-node="mn" transform="translate(502,-150) scale(0.707)"><use data-c="31" xlink:href="#MJX-5-TEX-N-31" xmlns:xlink="http://www.w3.org/1999/xlink"/></g></g><g data-mml-node="mo" transform="translate(22205.5,0)"><use data-c="2212" xlink:href="#MJX-5-TEX-N-2212" xmlns:xlink="http://www.w3.org/1999/xlink"/></g><g data-mml-node="msub" transform="translate(23205.8,0)"><g data-mml-node="mi"><use data-c="1D703" xlink:href="#MJX-5-TEX-I-1D703" xmlns:xlink="http://www.w3.org/1999/xlink"/></g><g data-mml-node="mn" transform="translate(502,-150) scale(0.707)"><use data-c="32" xlink:href="#MJX-5-TEX-N-32" xmlns:xlink="http://www.w3.org/1999/xlink"/></g></g><g data-mml-node="mo" transform="translate(24111.3,0)"><use data-c="29" xlink:href="#MJX-5-TEX-N-29" xmlns:xlink="http://www.w3.org/1999/xlink"/></g><g data-mml-node="msub" transform="translate(24500.3,0)"><g data-mml-node="mi"><use data-c="1D45A" xlink:href="#MJX-5-TEX-I-1D45A" xmlns:xlink="http://www.w3.org/1999/xlink"/></g><g data-mml-node="mn" transform="translate(911,-150) scale(0.707)"><use data-c="32" xlink:href="#MJX-5-TEX-N-32" xmlns:xlink="http://www.w3.org/1999/xlink"/></g></g><g data-mml-node="mrow" transform="translate(25981.5,0)"><g data-mml-node="mo" transform="translate(0 -0.5)"><use data-c="28" xlink:href="#MJX-5-TEX-SO-28" xmlns:xlink="http://www.w3.org/1999/xlink"/></g><g data-mml-node="msubsup" transform="translate(458,0)"><g data-mml-node="mi"><use data-c="1D703" xlink:href="#MJX-5-TEX-I-1D703" xmlns:xlink="http://www.w3.org/1999/xlink"/></g><g data-mml-node="mrow" transform="translate(502,363) scale(0.707)"><g data-mml-node="mo"><use data-c="2032" xlink:href="#MJX-5-TEX-V-2032" xmlns:xlink="http://www.w3.org/1999/xlink"/></g><g data-mml-node="mn" transform="translate(275,0)"><use data-c="32" xlink:href="#MJX-5-TEX-N-32" xmlns:xlink="http://www.w3.org/1999/xlink"/></g></g><g data-mml-node="mn" transform="translate(502,-287.9) scale(0.707)"><use data-c="32" xlink:href="#MJX-5-TEX-N-32" xmlns:xlink="http://www.w3.org/1999/xlink"/></g></g><g data-mml-node="msub" transform="translate(1558,0)"><g data-mml-node="mi"><use data-c="1D459" xlink:href="#MJX-5-TEX-I-1D459" xmlns:xlink="http://www.w3.org/1999/xlink"/></g><g data-mml-node="mn" transform="translate(331,-150) scale(0.707)"><use data-c="32" xlink:href="#MJX-5-TEX-N-32" xmlns:xlink="http://www.w3.org/1999/xlink"/></g></g><g data-mml-node="mo" transform="translate(2514.8,0)"><use data-c="2B" xlink:href="#MJX-5-TEX-N-2B" xmlns:xlink="http://www.w3.org/1999/xlink"/></g><g data-mml-node="msubsup" transform="translate(3515,0)"><g data-mml-node="mi"><use data-c="1D703" xlink:href="#MJX-5-TEX-I-1D703" xmlns:xlink="http://www.w3.org/1999/xlink"/></g><g data-mml-node="mrow" transform="translate(502,363) scale(0.707)"><g data-mml-node="mo"><use data-c="2032" xlink:href="#MJX-5-TEX-V-2032" xmlns:xlink="http://www.w3.org/1999/xlink"/></g><g data-mml-node="mn" transform="translate(275,0)"><use data-c="32" xlink:href="#MJX-5-TEX-N-32" xmlns:xlink="http://www.w3.org/1999/xlink"/></g></g><g data-mml-node="mn" transform="translate(502,-287.9) scale(0.707)"><use data-c="31" xlink:href="#MJX-5-TEX-N-31" xmlns:xlink="http://www.w3.org/1999/xlink"/></g></g><g data-mml-node="msub" transform="translate(4615,0)"><g data-mml-node="mi"><use data-c="1D459" xlink:href="#MJX-5-TEX-I-1D459" xmlns:xlink="http://www.w3.org/1999/xlink"/></g><g data-mml-node="mn" transform="translate(331,-150) scale(0.707)"><use data-c="31" xlink:href="#MJX-5-TEX-N-31" xmlns:xlink="http://www.w3.org/1999/xlink"/></g></g><g data-mml-node="mi" transform="translate(5516.2,0)"><use data-c="63" xlink:href="#MJX-5-TEX-N-63" xmlns:xlink="http://www.w3.org/1999/xlink"/><use data-c="6F" xlink:href="#MJX-5-TEX-N-6F" xmlns:xlink="http://www.w3.org/1999/xlink" transform="translate(444,0)"/><use data-c="73" xlink:href="#MJX-5-TEX-N-73" xmlns:xlink="http://www.w3.org/1999/xlink" transform="translate(944,0)"/></g><g data-mml-node="mo" transform="translate(6854.2,0)"><use data-c="2061" xlink:href="#MJX-5-TEX-N-2061" xmlns:xlink="http://www.w3.org/1999/xlink"/></g><g data-mml-node="mo" transform="translate(6854.2,0)"><use data-c="28" xlink:href="#MJX-5-TEX-N-28" xmlns:xlink="http://www.w3.org/1999/xlink"/></g><g data-mml-node="msub" transform="translate(7243.2,0)"><g data-mml-node="mi"><use data-c="1D703" xlink:href="#MJX-5-TEX-I-1D703" xmlns:xlink="http://www.w3.org/1999/xlink"/></g><g data-mml-node="mn" transform="translate(502,-150) scale(0.707)"><use data-c="31" xlink:href="#MJX-5-TEX-N-31" xmlns:xlink="http://www.w3.org/1999/xlink"/></g></g><g data-mml-node="mo" transform="translate(8371,0)"><use data-c="2212" xlink:href="#MJX-5-TEX-N-2212" xmlns:xlink="http://www.w3.org/1999/xlink"/></g><g data-mml-node="msub" transform="translate(9371.2,0)"><g data-mml-node="mi"><use data-c="1D703" xlink:href="#MJX-5-TEX-I-1D703" xmlns:xlink="http://www.w3.org/1999/xlink"/></g><g data-mml-node="mn" transform="translate(502,-150) scale(0.707)"><use data-c="32" xlink:href="#MJX-5-TEX-N-32" xmlns:xlink="http://www.w3.org/1999/xlink"/></g></g><g data-mml-node="mo" transform="translate(10276.8,0)"><use data-c="29" xlink:href="#MJX-5-TEX-N-29" xmlns:xlink="http://www.w3.org/1999/xlink"/></g><g data-mml-node="mo" transform="translate(10665.8,0) translate(0 -0.5)"><use data-c="29" xlink:href="#MJX-5-TEX-SO-29" xmlns:xlink="http://www.w3.org/1999/xlink"/></g></g></g><g data-mml-node="mrow" transform="translate(11330.7,-710)"><g data-mml-node="msub"><g data-mml-node="mi"><use data-c="1D459" xlink:href="#MJX-5-TEX-I-1D459" xmlns:xlink="http://www.w3.org/1999/xlink"/></g><g data-mml-node="mn" transform="translate(331,-150) scale(0.707)"><use data-c="31" xlink:href="#MJX-5-TEX-N-31" xmlns:xlink="http://www.w3.org/1999/xlink"/></g></g><g data-mml-node="mrow" transform="translate(901.2,0)"><g data-mml-node="mo"><use data-c="28" xlink:href="#MJX-5-TEX-N-28" xmlns:xlink="http://www.w3.org/1999/xlink"/></g><g data-mml-node="mn" transform="translate(389,0)"><use data-c="32" xlink:href="#MJX-5-TEX-N-32" xmlns:xlink="http://www.w3.org/1999/xlink"/></g><g data-mml-node="msub" transform="translate(889,0)"><g data-mml-node="mi"><use data-c="1D45A" xlink:href="#MJX-5-TEX-I-1D45A" xmlns:xlink="http://www.w3.org/1999/xlink"/></g><g data-mml-node="mn" transform="translate(911,-150) scale(0.707)"><use data-c="31" xlink:href="#MJX-5-TEX-N-31" xmlns:xlink="http://www.w3.org/1999/xlink"/></g></g><g data-mml-node="mo" transform="translate(2425.8,0)"><use data-c="2B" xlink:href="#MJX-5-TEX-N-2B" xmlns:xlink="http://www.w3.org/1999/xlink"/></g><g data-mml-node="msub" transform="translate(3426,0)"><g data-mml-node="mi"><use data-c="1D45A" xlink:href="#MJX-5-TEX-I-1D45A" xmlns:xlink="http://www.w3.org/1999/xlink"/></g><g data-mml-node="mn" transform="translate(911,-150) scale(0.707)"><use data-c="32" xlink:href="#MJX-5-TEX-N-32" xmlns:xlink="http://www.w3.org/1999/xlink"/></g></g><g data-mml-node="mo" transform="translate(4962.8,0)"><use data-c="2212" xlink:href="#MJX-5-TEX-N-2212" xmlns:xlink="http://www.w3.org/1999/xlink"/></g><g data-mml-node="msub" transform="translate(5963,0)"><g data-mml-node="mi"><use data-c="1D45A" xlink:href="#MJX-5-TEX-I-1D45A" xmlns:xlink="http://www.w3.org/1999/xlink"/></g><g data-mml-node="mn" transform="translate(911,-150) scale(0.707)"><use data-c="32" xlink:href="#MJX-5-TEX-N-32" xmlns:xlink="http://www.w3.org/1999/xlink"/></g></g><g data-mml-node="mi" transform="translate(7444.2,0)"><use data-c="63" xlink:href="#MJX-5-TEX-N-63" xmlns:xlink="http://www.w3.org/1999/xlink"/><use data-c="6F" xlink:href="#MJX-5-TEX-N-6F" xmlns:xlink="http://www.w3.org/1999/xlink" transform="translate(444,0)"/><use data-c="73" xlink:href="#MJX-5-TEX-N-73" xmlns:xlink="http://www.w3.org/1999/xlink" transform="translate(944,0)"/></g><g data-mml-node="mo" transform="translate(8782.2,0)"><use data-c="2061" xlink:href="#MJX-5-TEX-N-2061" xmlns:xlink="http://www.w3.org/1999/xlink"/></g><g data-mml-node="mo" transform="translate(8782.2,0)"><use data-c="28" xlink:href="#MJX-5-TEX-N-28" xmlns:xlink="http://www.w3.org/1999/xlink"/></g><g data-mml-node="mn" transform="translate(9171.2,0)"><use data-c="32" xlink:href="#MJX-5-TEX-N-32" xmlns:xlink="http://www.w3.org/1999/xlink"/></g><g data-mml-node="msub" transform="translate(9671.2,0)"><g data-mml-node="mi"><use data-c="1D703" xlink:href="#MJX-5-TEX-I-1D703" xmlns:xlink="http://www.w3.org/1999/xlink"/></g><g data-mml-node="mn" transform="translate(502,-150) scale(0.707)"><use data-c="31" xlink:href="#MJX-5-TEX-N-31" xmlns:xlink="http://www.w3.org/1999/xlink"/></g></g><g data-mml-node="mo" transform="translate(10799,0)"><use data-c="2212" xlink:href="#MJX-5-TEX-N-2212" xmlns:xlink="http://www.w3.org/1999/xlink"/></g><g data-mml-node="mn" transform="translate(11799.2,0)"><use data-c="32" xlink:href="#MJX-5-TEX-N-32" xmlns:xlink="http://www.w3.org/1999/xlink"/></g><g data-mml-node="msub" transform="translate(12299.2,0)"><g data-mml-node="mi"><use data-c="1D703" xlink:href="#MJX-5-TEX-I-1D703" xmlns:xlink="http://www.w3.org/1999/xlink"/></g><g data-mml-node="mn" transform="translate(502,-150) scale(0.707)"><use data-c="32" xlink:href="#MJX-5-TEX-N-32" xmlns:xlink="http://www.w3.org/1999/xlink"/></g></g><g data-mml-node="mo" transform="translate(13204.8,0)"><use data-c="29" xlink:href="#MJX-5-TEX-N-29" xmlns:xlink="http://www.w3.org/1999/xlink"/></g><g data-mml-node="mo" transform="translate(13593.8,0)"><use data-c="29" xlink:href="#MJX-5-TEX-N-29" xmlns:xlink="http://www.w3.org/1999/xlink"/></g></g></g><rect width="37305.3" height="60" x="120" y="220"/></g><g data-mml-node="mtext" transform="translate(38878.9,0)"><use data-c="A0" xlink:href="#MJX-5-TEX-N-A0" xmlns:xlink="http://www.w3.org/1999/xlink"/></g><g data-mml-node="mtext" fill="red" stroke="red" transform="translate(39128.9,0)"><use data-c="5C" xlink:href="#MJX-5-TEX-N-5C" xmlns:xlink="http://www.w3.org/1999/xlink"/><use data-c="5B" xlink:href="#MJX-5-TEX-N-5B" xmlns:xlink="http://www.w3.org/1999/xlink" transform="translate(500,0)"/></g><g data-mml-node="mn" transform="translate(39906.9,0)"><use data-c="31" xlink:href="#MJX-5-TEX-N-31" xmlns:xlink="http://www.w3.org/1999/xlink"/></g><g data-mml-node="mi" transform="translate(40406.9,0)"><use data-c="1D452" xlink:href="#MJX-5-TEX-I-1D452" xmlns:xlink="http://www.w3.org/1999/xlink"/></g><g data-mml-node="mi" transform="translate(40872.9,0)"><use data-c="1D45A" xlink:href="#MJX-5-TEX-I-1D45A" xmlns:xlink="http://www.w3.org/1999/xlink"/></g><g data-mml-node="mo" transform="translate(41750.9,0)"><use data-c="5D" xlink:href="#MJX-5-TEX-N-5D" xmlns:xlink="http://www.w3.org/1999/xlink"/></g><g data-mml-node="msubsup" transform="translate(42028.9,0)"><g data-mml-node="mi"><use data-c="1D703" xlink:href="#MJX-5-TEX-I-1D703" xmlns:xlink="http://www.w3.org/1999/xlink"/></g><g data-mml-node="mo" transform="translate(502,413) scale(0.707)"><g data-c="2033"><use data-c="2032" xlink:href="#MJX-5-TEX-V-2032" xmlns:xlink="http://www.w3.org/1999/xlink"/><use data-c="2032" xlink:href="#MJX-5-TEX-V-2032" xmlns:xlink="http://www.w3.org/1999/xlink" transform="translate(275,0)"/></g></g><g data-mml-node="mn" transform="translate(502,-247) scale(0.707)"><use data-c="32" xlink:href="#MJX-5-TEX-N-32" xmlns:xlink="http://www.w3.org/1999/xlink"/></g></g></g><g data-mml-node="mtd" transform="translate(45910.7,0)"><g data-mml-node="mi"/><g data-mml-node="mo" transform="translate(277.8,0)"><use data-c="3D" xlink:href="#MJX-5-TEX-N-3D" xmlns:xlink="http://www.w3.org/1999/xlink"/></g><g data-mml-node="mfrac" transform="translate(1333.6,0)"><g data-mml-node="mrow" transform="translate(220,809.5)"><g data-mml-node="mn"><use data-c="32" xlink:href="#MJX-5-TEX-N-32" xmlns:xlink="http://www.w3.org/1999/xlink"/></g><g data-mml-node="mi" transform="translate(666.7,0)"><use data-c="73" xlink:href="#MJX-5-TEX-N-73" xmlns:xlink="http://www.w3.org/1999/xlink"/><use data-c="69" xlink:href="#MJX-5-TEX-N-69" xmlns:xlink="http://www.w3.org/1999/xlink" transform="translate(394,0)"/><use data-c="6E" xlink:href="#MJX-5-TEX-N-6E" xmlns:xlink="http://www.w3.org/1999/xlink" transform="translate(672,0)"/></g><g data-mml-node="mo" transform="translate(1894.7,0)"><use data-c="2061" xlink:href="#MJX-5-TEX-N-2061" xmlns:xlink="http://www.w3.org/1999/xlink"/></g><g data-mml-node="mo" transform="translate(1894.7,0)"><use data-c="28" xlink:href="#MJX-5-TEX-N-28" xmlns:xlink="http://www.w3.org/1999/xlink"/></g><g data-mml-node="msub" transform="translate(2283.7,0)"><g data-mml-node="mi"><use data-c="1D703" xlink:href="#MJX-5-TEX-I-1D703" xmlns:xlink="http://www.w3.org/1999/xlink"/></g><g data-mml-node="mn" transform="translate(502,-150) scale(0.707)"><use data-c="31" xlink:href="#MJX-5-TEX-N-31" xmlns:xlink="http://www.w3.org/1999/xlink"/></g></g><g data-mml-node="mo" transform="translate(3411.4,0)"><use data-c="2212" xlink:href="#MJX-5-TEX-N-2212" xmlns:xlink="http://www.w3.org/1999/xlink"/></g><g data-mml-node="msub" transform="translate(4411.7,0)"><g data-mml-node="mi"><use data-c="1D703" xlink:href="#MJX-5-TEX-I-1D703" xmlns:xlink="http://www.w3.org/1999/xlink"/></g><g data-mml-node="mn" transform="translate(502,-150) scale(0.707)"><use data-c="32" xlink:href="#MJX-5-TEX-N-32" xmlns:xlink="http://www.w3.org/1999/xlink"/></g></g><g data-mml-node="mo" transform="translate(5317.2,0)"><use data-c="29" xlink:href="#MJX-5-TEX-N-29" xmlns:xlink="http://www.w3.org/1999/xlink"/></g><g data-mml-node="mrow" transform="translate(5872.9,0)"><g data-mml-node="mo" transform="translate(0 -0.5)"><use data-c="28" xlink:href="#MJX-5-TEX-SO-28" xmlns:xlink="http://www.w3.org/1999/xlink"/></g><g data-mml-node="msubsup" transform="translate(458,0)"><g data-mml-node="mi"><use data-c="1D703" xlink:href="#MJX-5-TEX-I-1D703" xmlns:xlink="http://www.w3.org/1999/xlink"/></g><g data-mml-node="mrow" transform="translate(502,363) scale(0.707)"><g data-mml-node="mo"><use data-c="2032" xlink:href="#MJX-5-TEX-V-2032" xmlns:xlink="http://www.w3.org/1999/xlink"/></g><g data-mml-node="mn" transform="translate(275,0)"><use data-c="32" xlink:href="#MJX-5-TEX-N-32" xmlns:xlink="http://www.w3.org/1999/xlink"/></g></g><g data-mml-node="mn" transform="translate(502,-287.9) scale(0.707)"><use data-c="31" xlink:href="#MJX-5-TEX-N-31" xmlns:xlink="http://www.w3.org/1999/xlink"/></g></g><g data-mml-node="msub" transform="translate(1558,0)"><g data-mml-node="mi"><use data-c="1D459" xlink:href="#MJX-5-TEX-I-1D459" xmlns:xlink="http://www.w3.org/1999/xlink"/></g><g data-mml-node="mn" transform="translate(331,-150) scale(0.707)"><use data-c="31" xlink:href="#MJX-5-TEX-N-31" xmlns:xlink="http://www.w3.org/1999/xlink"/></g></g><g data-mml-node="mo" transform="translate(2292.6,0)"><use data-c="28" xlink:href="#MJX-5-TEX-N-28" xmlns:xlink="http://www.w3.org/1999/xlink"/></g><g data-mml-node="msub" transform="translate(2681.6,0)"><g data-mml-node="mi"><use data-c="1D45A" xlink:href="#MJX-5-TEX-I-1D45A" xmlns:xlink="http://www.w3.org/1999/xlink"/></g><g data-mml-node="mn" transform="translate(911,-150) scale(0.707)"><use data-c="31" xlink:href="#MJX-5-TEX-N-31" xmlns:xlink="http://www.w3.org/1999/xlink"/></g></g><g data-mml-node="mo" transform="translate(4218.3,0)"><use data-c="2B" xlink:href="#MJX-5-TEX-N-2B" xmlns:xlink="http://www.w3.org/1999/xlink"/></g><g data-mml-node="msub" transform="translate(5218.6,0)"><g data-mml-node="mi"><use data-c="1D45A" xlink:href="#MJX-5-TEX-I-1D45A" xmlns:xlink="http://www.w3.org/1999/xlink"/></g><g data-mml-node="mn" transform="translate(911,-150) scale(0.707)"><use data-c="32" xlink:href="#MJX-5-TEX-N-32" xmlns:xlink="http://www.w3.org/1999/xlink"/></g></g><g data-mml-node="mo" transform="translate(6533.1,0)"><use data-c="29" xlink:href="#MJX-5-TEX-N-29" xmlns:xlink="http://www.w3.org/1999/xlink"/></g><g data-mml-node="mo" transform="translate(7144.3,0)"><use data-c="2B" xlink:href="#MJX-5-TEX-N-2B" xmlns:xlink="http://www.w3.org/1999/xlink"/></g><g data-mml-node="mi" transform="translate(8144.6,0)"><use data-c="1D454" xlink:href="#MJX-5-TEX-I-1D454" xmlns:xlink="http://www.w3.org/1999/xlink"/></g><g data-mml-node="mo" transform="translate(8621.6,0)"><use data-c="28" xlink:href="#MJX-5-TEX-N-28" xmlns:xlink="http://www.w3.org/1999/xlink"/></g><g data-mml-node="msub" transform="translate(9010.6,0)"><g data-mml-node="mi"><use data-c="1D45A" xlink:href="#MJX-5-TEX-I-1D45A" xmlns:xlink="http://www.w3.org/1999/xlink"/></g><g data-mml-node="mn" transform="translate(911,-150) scale(0.707)"><use data-c="31" xlink:href="#MJX-5-TEX-N-31" xmlns:xlink="http://www.w3.org/1999/xlink"/></g></g><g data-mml-node="mo" transform="translate(10547.3,0)"><use data-c="2B" xlink:href="#MJX-5-TEX-N-2B" xmlns:xlink="http://www.w3.org/1999/xlink"/></g><g data-mml-node="msub" transform="translate(11547.6,0)"><g data-mml-node="mi"><use data-c="1D45A" xlink:href="#MJX-5-TEX-I-1D45A" xmlns:xlink="http://www.w3.org/1999/xlink"/></g><g data-mml-node="mn" transform="translate(911,-150) scale(0.707)"><use data-c="32" xlink:href="#MJX-5-TEX-N-32" xmlns:xlink="http://www.w3.org/1999/xlink"/></g></g><g data-mml-node="mo" transform="translate(12862.1,0)"><use data-c="29" xlink:href="#MJX-5-TEX-N-29" xmlns:xlink="http://www.w3.org/1999/xlink"/></g><g data-mml-node="mi" transform="translate(13417.8,0)"><use data-c="63" xlink:href="#MJX-5-TEX-N-63" xmlns:xlink="http://www.w3.org/1999/xlink"/><use data-c="6F" xlink:href="#MJX-5-TEX-N-6F" xmlns:xlink="http://www.w3.org/1999/xlink" transform="translate(444,0)"/><use data-c="73" xlink:href="#MJX-5-TEX-N-73" xmlns:xlink="http://www.w3.org/1999/xlink" transform="translate(944,0)"/></g><g data-mml-node="mo" transform="translate(14755.8,0)"><use data-c="2061" xlink:href="#MJX-5-TEX-N-2061" xmlns:xlink="http://www.w3.org/1999/xlink"/></g><g data-mml-node="msub" transform="translate(14922.4,0)"><g data-mml-node="mi"><use data-c="1D703" xlink:href="#MJX-5-TEX-I-1D703" xmlns:xlink="http://www.w3.org/1999/xlink"/></g><g data-mml-node="mn" transform="translate(502,-150) scale(0.707)"><use data-c="31" xlink:href="#MJX-5-TEX-N-31" xmlns:xlink="http://www.w3.org/1999/xlink"/></g></g><g data-mml-node="mo" transform="translate(16050.2,0)"><use data-c="2B" xlink:href="#MJX-5-TEX-N-2B" xmlns:xlink="http://www.w3.org/1999/xlink"/></g><g data-mml-node="msubsup" transform="translate(17050.4,0)"><g data-mml-node="mi"><use data-c="1D703" xlink:href="#MJX-5-TEX-I-1D703" xmlns:xlink="http://www.w3.org/1999/xlink"/></g><g data-mml-node="mrow" transform="translate(502,363) scale(0.707)"><g data-mml-node="mo"><use data-c="2032" xlink:href="#MJX-5-TEX-V-2032" xmlns:xlink="http://www.w3.org/1999/xlink"/></g><g data-mml-node="mn" transform="translate(275,0)"><use data-c="32" xlink:href="#MJX-5-TEX-N-32" xmlns:xlink="http://www.w3.org/1999/xlink"/></g></g><g data-mml-node="mn" transform="translate(502,-287.9) scale(0.707)"><use data-c="32" xlink:href="#MJX-5-TEX-N-32" xmlns:xlink="http://www.w3.org/1999/xlink"/></g></g><g data-mml-node="msub" transform="translate(18150.4,0)"><g data-mml-node="mi"><use data-c="1D459" xlink:href="#MJX-5-TEX-I-1D459" xmlns:xlink="http://www.w3.org/1999/xlink"/></g><g data-mml-node="mn" transform="translate(331,-150) scale(0.707)"><use data-c="32" xlink:href="#MJX-5-TEX-N-32" xmlns:xlink="http://www.w3.org/1999/xlink"/></g></g><g data-mml-node="msub" transform="translate(18885,0)"><g data-mml-node="mi"><use data-c="1D45A" xlink:href="#MJX-5-TEX-I-1D45A" xmlns:xlink="http://www.w3.org/1999/xlink"/></g><g data-mml-node="mn" transform="translate(911,-150) scale(0.707)"><use data-c="32" xlink:href="#MJX-5-TEX-N-32" xmlns:xlink="http://www.w3.org/1999/xlink"/></g></g><g data-mml-node="mi" transform="translate(20366.2,0)"><use data-c="63" xlink:href="#MJX-5-TEX-N-63" xmlns:xlink="http://www.w3.org/1999/xlink"/><use data-c="6F" xlink:href="#MJX-5-TEX-N-6F" xmlns:xlink="http://www.w3.org/1999/xlink" transform="translate(444,0)"/><use data-c="73" xlink:href="#MJX-5-TEX-N-73" xmlns:xlink="http://www.w3.org/1999/xlink" transform="translate(944,0)"/></g><g data-mml-node="mo" transform="translate(21704.2,0)"><use data-c="2061" xlink:href="#MJX-5-TEX-N-2061" xmlns:xlink="http://www.w3.org/1999/xlink"/></g><g data-mml-node="mo" transform="translate(21704.2,0)"><use data-c="28" xlink:href="#MJX-5-TEX-N-28" xmlns:xlink="http://www.w3.org/1999/xlink"/></g><g data-mml-node="msub" transform="translate(22093.2,0)"><g data-mml-node="mi"><use data-c="1D703" xlink:href="#MJX-5-TEX-I-1D703" xmlns:xlink="http://www.w3.org/1999/xlink"/></g><g data-mml-node="mn" transform="translate(502,-150) scale(0.707)"><use data-c="31" xlink:href="#MJX-5-TEX-N-31" xmlns:xlink="http://www.w3.org/1999/xlink"/></g></g><g data-mml-node="mo" transform="translate(23221,0)"><use data-c="2212" xlink:href="#MJX-5-TEX-N-2212" xmlns:xlink="http://www.w3.org/1999/xlink"/></g><g data-mml-node="msub" transform="translate(24221.2,0)"><g data-mml-node="mi"><use data-c="1D703" xlink:href="#MJX-5-TEX-I-1D703" xmlns:xlink="http://www.w3.org/1999/xlink"/></g><g data-mml-node="mn" transform="translate(502,-150) scale(0.707)"><use data-c="32" xlink:href="#MJX-5-TEX-N-32" xmlns:xlink="http://www.w3.org/1999/xlink"/></g></g><g data-mml-node="mo" transform="translate(25126.8,0)"><use data-c="29" xlink:href="#MJX-5-TEX-N-29" xmlns:xlink="http://www.w3.org/1999/xlink"/></g><g data-mml-node="mo" transform="translate(25515.8,0) translate(0 -0.5)"><use data-c="29" xlink:href="#MJX-5-TEX-SO-29" xmlns:xlink="http://www.w3.org/1999/xlink"/></g></g></g><g data-mml-node="mrow" transform="translate(8701.3,-710)"><g data-mml-node="msub"><g data-mml-node="mi"><use data-c="1D459" xlink:href="#MJX-5-TEX-I-1D459" xmlns:xlink="http://www.w3.org/1999/xlink"/></g><g data-mml-node="mn" transform="translate(331,-150) scale(0.707)"><use data-c="32" xlink:href="#MJX-5-TEX-N-32" xmlns:xlink="http://www.w3.org/1999/xlink"/></g></g><g data-mml-node="mrow" transform="translate(901.2,0)"><g data-mml-node="mo"><use data-c="28" xlink:href="#MJX-5-TEX-N-28" xmlns:xlink="http://www.w3.org/1999/xlink"/></g><g data-mml-node="mn" transform="translate(389,0)"><use data-c="32" xlink:href="#MJX-5-TEX-N-32" xmlns:xlink="http://www.w3.org/1999/xlink"/></g><g data-mml-node="msub" transform="translate(889,0)"><g data-mml-node="mi"><use data-c="1D45A" xlink:href="#MJX-5-TEX-I-1D45A" xmlns:xlink="http://www.w3.org/1999/xlink"/></g><g data-mml-node="mn" transform="translate(911,-150) scale(0.707)"><use data-c="31" xlink:href="#MJX-5-TEX-N-31" xmlns:xlink="http://www.w3.org/1999/xlink"/></g></g><g data-mml-node="mo" transform="translate(2425.8,0)"><use data-c="2B" xlink:href="#MJX-5-TEX-N-2B" xmlns:xlink="http://www.w3.org/1999/xlink"/></g><g data-mml-node="msub" transform="translate(3426,0)"><g data-mml-node="mi"><use data-c="1D45A" xlink:href="#MJX-5-TEX-I-1D45A" xmlns:xlink="http://www.w3.org/1999/xlink"/></g><g data-mml-node="mn" transform="translate(911,-150) scale(0.707)"><use data-c="32" xlink:href="#MJX-5-TEX-N-32" xmlns:xlink="http://www.w3.org/1999/xlink"/></g></g><g data-mml-node="mo" transform="translate(4962.8,0)"><use data-c="2212" xlink:href="#MJX-5-TEX-N-2212" xmlns:xlink="http://www.w3.org/1999/xlink"/></g><g data-mml-node="msub" transform="translate(5963,0)"><g data-mml-node="mi"><use data-c="1D45A" xlink:href="#MJX-5-TEX-I-1D45A" xmlns:xlink="http://www.w3.org/1999/xlink"/></g><g data-mml-node="mn" transform="translate(911,-150) scale(0.707)"><use data-c="32" xlink:href="#MJX-5-TEX-N-32" xmlns:xlink="http://www.w3.org/1999/xlink"/></g></g><g data-mml-node="mi" transform="translate(7444.2,0)"><use data-c="63" xlink:href="#MJX-5-TEX-N-63" xmlns:xlink="http://www.w3.org/1999/xlink"/><use data-c="6F" xlink:href="#MJX-5-TEX-N-6F" xmlns:xlink="http://www.w3.org/1999/xlink" transform="translate(444,0)"/><use data-c="73" xlink:href="#MJX-5-TEX-N-73" xmlns:xlink="http://www.w3.org/1999/xlink" transform="translate(944,0)"/></g><g data-mml-node="mo" transform="translate(8782.2,0)"><use data-c="2061" xlink:href="#MJX-5-TEX-N-2061" xmlns:xlink="http://www.w3.org/1999/xlink"/></g><g data-mml-node="mo" transform="translate(8782.2,0)"><use data-c="28" xlink:href="#MJX-5-TEX-N-28" xmlns:xlink="http://www.w3.org/1999/xlink"/></g><g data-mml-node="mn" transform="translate(9171.2,0)"><use data-c="32" xlink:href="#MJX-5-TEX-N-32" xmlns:xlink="http://www.w3.org/1999/xlink"/></g><g data-mml-node="msub" transform="translate(9671.2,0)"><g data-mml-node="mi"><use data-c="1D703" xlink:href="#MJX-5-TEX-I-1D703" xmlns:xlink="http://www.w3.org/1999/xlink"/></g><g data-mml-node="mn" transform="translate(502,-150) scale(0.707)"><use data-c="31" xlink:href="#MJX-5-TEX-N-31" xmlns:xlink="http://www.w3.org/1999/xlink"/></g></g><g data-mml-node="mo" transform="translate(10799,0)"><use data-c="2212" xlink:href="#MJX-5-TEX-N-2212" xmlns:xlink="http://www.w3.org/1999/xlink"/></g><g data-mml-node="mn" transform="translate(11799.2,0)"><use data-c="32" xlink:href="#MJX-5-TEX-N-32" xmlns:xlink="http://www.w3.org/1999/xlink"/></g><g data-mml-node="msub" transform="translate(12299.2,0)"><g data-mml-node="mi"><use data-c="1D703" xlink:href="#MJX-5-TEX-I-1D703" xmlns:xlink="http://www.w3.org/1999/xlink"/></g><g data-mml-node="mn" transform="translate(502,-150) scale(0.707)"><use data-c="32" xlink:href="#MJX-5-TEX-N-32" xmlns:xlink="http://www.w3.org/1999/xlink"/></g></g><g data-mml-node="mo" transform="translate(13204.8,0)"><use data-c="29" xlink:href="#MJX-5-TEX-N-29" xmlns:xlink="http://www.w3.org/1999/xlink"/></g><g data-mml-node="mo" transform="translate(13593.8,0)"><use data-c="29" xlink:href="#MJX-5-TEX-N-29" xmlns:xlink="http://www.w3.org/1999/xlink"/></g></g></g><rect width="32046.7" height="60" x="120" y="220"/></g></g></g></g></g></g></svg>